/* XPM */
static char *result[] = {
/* columns rows colors chars-per-pixel */
"48 48 245 2 ",
"   c #1B1717",
".  c #090606",
"X  c #2A1B17",
"o  c #38221C",
"O  c #292019",
"+  c #2B2524",
"@  c #3E332D",
"#  c #2E2D2D",
"$  c #44261E",
"%  c #4A2A23",
"&  c #42342D",
"*  c #57342A",
"=  c #483935",
"-  c #5E3B35",
";  c #613C32",
":  c #774C11",
">  c #7D5215",
",  c #794C0E",
"<  c #56463C",
"1  c #594B32",
"2  c #7C5424",
"3  c #7A4A3C",
"4  c #6A4B39",
"5  c #7F6034",
"6  c #2A3043",
"7  c #443E46",
"8  c #544941",
"9  c #545344",
"0  c #595645",
"q  c #5C5B4B",
"w  c #595658",
"e  c #4E4A51",
"r  c #674C45",
"t  c #65584A",
"y  c #765D5A",
"u  c #6E5A50",
"i  c #6B634D",
"p  c #64614E",
"a  c #71664D",
"s  c #79674C",
"d  c #646354",
"f  c #6C6652",
"g  c #6B6759",
"h  c #726751",
"j  c #756A54",
"k  c #7B6C54",
"l  c #7C635C",
"z  c #746D5A",
"x  c #776958",
"c  c #7C715C",
"v  c #797058",
"b  c #7B7562",
"n  c #776A6C",
"m  c #8B5D1C",
"M  c #865715",
"N  c #92611C",
"B  c #8E601F",
"V  c #835D28",
"C  c #875839",
"Z  c #8C6429",
"A  c #976925",
"S  c #886739",
"D  c #936B34",
"F  c #9C743A",
"G  c #A2722B",
"H  c #AD7E3A",
"J  c #A77834",
"K  c #89574B",
"L  c #915A50",
"P  c #876B48",
"I  c #8B734A",
"U  c #836E55",
"Y  c #856F56",
"T  c #847155",
"R  c #8C7257",
"E  c #84735B",
"W  c #8C745A",
"Q  c #8B7A5A",
"!  c #937355",
"~  c #93765A",
"^  c #957C5B",
"/  c #9B7C5D",
"(  c #977B54",
")  c #9A6D50",
"_  c #A37D43",
"`  c #A47C5D",
"'  c #AC7E5C",
"]  c #A77954",
"[  c #B17E5B",
"{  c #B97D58",
"}  c #AD6B55",
"|  c #886B64",
" . c #837661",
".. c #8C7C63",
"X. c #897768",
"o. c #927C63",
"O. c #9A7C63",
"+. c #937767",
"@. c #847A71",
"#. c #997D73",
"$. c #976B65",
"%. c #A67A69",
"&. c #A47C74",
"*. c #AE756B",
"=. c #C36E4F",
"-. c #CD7456",
";. c #CB7657",
":. c #D27656",
">. c #D47B5B",
",. c #DA7D5D",
"<. c #D27758",
"1. c #C46F51",
"2. c #D87E61",
"3. c #D27E72",
"4. c #E37F60",
"5. c #B7863C",
"6. c #AE813C",
"7. c #99835A",
"8. c #AB8346",
"9. c #B48642",
"0. c #B58845",
"q. c #B98B46",
"w. c #BA8D4A",
"e. c #B78B4A",
"r. c #BC914E",
"t. c #AC815D",
"y. c #A68759",
"u. c #B4815F",
"i. c #BB825E",
"p. c #B68E52",
"a. c #BD9252",
"s. c #BD965A",
"d. c #B8955E",
"f. c #8D816A",
"g. c #998468",
"h. c #8A8473",
"j. c #988778",
"k. c #A48263",
"l. c #AC8162",
"z. c #A98869",
"x. c #B48564",
"c. c #BC8461",
"v. c #B88969",
"b. c #A89063",
"n. c #B79866",
"m. c #A5897D",
"M. c #A68777",
"N. c #B5877B",
"B. c #A79477",
"V. c #BD977B",
"C. c #BAA06C",
"Z. c #C7994C",
"A. c #C29654",
"S. c #C39A5D",
"D. c #C59B56",
"F. c #C1845E",
"G. c #C9A259",
"H. c #DC8264",
"J. c #DD8669",
"K. c #C29B65",
"L. c #C89878",
"P. c #DD947B",
"I. c #CC8A70",
"U. c #E38464",
"Y. c #E5896B",
"T. c #EC8C6B",
"R. c #E78766",
"E. c #E78E71",
"W. c #EE9373",
"Q. c #E69378",
"!. c #F59574",
"~. c #F69976",
"^. c #F2997B",
"/. c #F99979",
"(. c #F99876",
"). c #F08E6D",
"_. c #CCA263",
"`. c #C4A16A",
"'. c #CBA769",
"]. c #D2AA69",
"[. c #D3B173",
"{. c #647884",
"}. c #978985",
"|. c #94918F",
" X c #A88C85",
".X c #BC8C82",
"XX c #B28B83",
"oX c #BD9286",
"OX c #B3938B",
"+X c #BC948A",
"@X c #B69586",
"#X c #AA9A94",
"$X c #B39790",
"%X c #B8A591",
"&X c #B4A6A5",
"*X c #AFADAD",
"=X c #C49789",
"-X c #C79D93",
";X c #D09585",
":X c #EE9E83",
">X c #F09D82",
",X c #C6A288",
"<X c #D4B884",
"1X c #CCA59A",
"2X c #C8A69D",
"3X c #DBAA9D",
"4X c #D4A799",
"5X c #C8BC98",
"6X c #D1BB92",
"7X c #ECA48D",
"8X c #F3A78E",
"9X c #E6AA96",
"0X c #ECA892",
"qX c #F4AB93",
"wX c #E4B09F",
"eX c #C9ACA4",
"rX c #D6ADA2",
"tX c #DEB6AB",
"yX c #DEBAAE",
"uX c #D7B4A6",
"iX c #D8BBB3",
"pX c #C8B7AA",
"aX c #E5B4A5",
"sX c #E4B6A9",
"dX c #E8B6A8",
"fX c #E5B9AC",
"gX c #EABAAC",
"hX c #EAB5A5",
"jX c #E9BEB3",
"kX c #E4BAB0",
"lX c #F2BEB0",
"zX c #CAC3BC",
"xX c #D8C3BD",
"cX c #EBC4B9",
"vX c #F0C5BB",
"bX c #ECDEB2",
"nX c #D2CAC8",
"mX c #D7D3D2",
"MX c #EBCCC5",
"NX c #F2CCC3",
"BX c #EBD9D5",
"VX c #FAFCFC",
"CX c #F1ECE6",
"ZX c #F0E2DF",
"AX c None",
/* pixels */
"AXAXAXAXAXAXAXAXAXAXAXAXAXAXAXAXAXAXAXS.d.w.e.0.0.e.8.a.C.AXAXAXAXAXAXAXAXAXAXAXAXAXAXAXAXAXAXAX",
"AXAXAXAXAXAXAXAXAXAXAXAXAXAXAXAXa.r.0.0.6.6.8.6.F 6.6.6.6.6.0.s.AXAXAXAXAXAXAXAXAXAXAXAXAXAXAXAX",
"AXAXAXAXAXAXAXAXAXAXAXAXAX`.r.q.0.p.8.I 7.7.v Q v v 7.Q I F A G H q.`.AXAXAXAXAXAXAXAXAXAXAXAXAX",
"AXAXAXAXAXAXAXAXAXAXAXAXr.r.r.y.I k z g b p.7.@.h.h.B.8.f.h.E I D Z J q.AXAXAXAXAXAXAXAXAXAXAXAX",
"AXAXAXAXAXAXAXAXAXAXG.q.A.y.P f g z v b f.Z.Z.n.n.b.8.D 7...f.....I D B J S.AXAXAXAXAXAXAXAXAXAX",
"AXAXAXAXAXAXAXAXAXa.a.d.7.d d z v c f.g.[.<XZ.Z.G.5.2 Z 7.7.7./ / O.^ P V A q.AXAXAXAXAXAXAXAXAX",
"AXAXAXAXAXAXAXAXq.s.d.h q z c c b  .f.<XC.].G.[.D.G.5.6.u.` ' %.l.` ` O.( Z m H AXAXAXAXAXAXAXAX",
"AXAXAXAXAXAXAXw.S.y.d d z v c E Q ..%XbX7.].G.p S ].].5.p.` ] ` ` ] ` ` O.O.S m H AXAXAXAXAXAXAX",
"AXAXAXAXAXAXq.G.y.p g z k T E W ! ! 5X5Xb.<Xn. .B.5X5X_.A./ ] W ~ ' %./ / y.g.D M H AXAXAXAXAXAX",
"AXAXAXAXAXr.S.y.d g h v c T R ! ` [ uX@.d #.#X XX...%XB.b.` [ ` / [ ' t.` %.k.g.S m 0.AXAXAXAXAX",
"AXAXAXAX'.D.d.q d j k T R ! ! ( F.R.E.2.3.-.-.-.;.<.J.Q.E.E.W.U.c.[ u.%.t.t.t.y.g.Z m S.AXAXAXAX",
"AXAXAXAXw.'.a 0 i s T R ! ~ ) ^ L.!.2.:.-.-.-.<.-.<.<.>.<.H.W.P.P [ u.[ ' ' t.%.z./ > G AXAXAXAX",
"AXAXAXa._.Q < f j U Y ! ! ! M.mXaX:.:.-.-.-.-.:.-.-.-.-.<.-.2.Q.#XOX[ c.u.u.u.t.%.z.( M 0.AXAXAX",
"AXAXAXA.C.4 p a a U T ! ! ~ mX&X} :.<.2.U.Y.Y.2.2.>.<.;.;.;.:.} y pX%.{ u.u.u.x.x.x.z.2 N '.AXAX",
"AXAXA.'.T 9 f a k Y ! ! ~ zX|.o C U.T.!.!./.!.!.).).U.2.:.:.,.=.+ w }.' i.i.c.c.v.v.B.` M 9.AXAX",
"AXAXA.K.1 d a k U R R ! 2X|.X   L /.~.!.!.!.!.:X7X7X:X:XI.P.I.K 8 = h.M.i.i.c.c.v.z.|.%XV A AXAX",
"AXS._.b.< u s k R R R z.}.X o l 8X!.!.!.!.W.!.7XiXtXtX1XoXrXtX| = 8 |.nXN.;.c.v.F.}.zXV.P M a.AX",
"AXa.'.a 0 a k U R R R @Xr o l eX8X!.!.!.!.!.!.0XtXtXsXrXrXtXfX4Xu & u nXuXu.c.F.N.*XpXb.z.M H AX",
"AXD.C.1 q a k Y R R R eX}.l m.tX:X!././.!.!.!.0XtXtXiXkXtXfXiXMXOX= = l nXF.c.F.|.nXV.u.B.V A AX",
"AXG.b.< p k U Y R ! R pXZXpX+XtX0X/././.!.!.!.:X9X9X9X9X9X9XdXMXtXr @ = &XL.F.v.|.,Xi.x.V.S M K.",
"n.G.^ < f k U R W O.( zXnX| 1XyX0X!././.!.!.!.!.!.!.!.!.!.!.!.cXMX+.= & }.,Xu.}.#Xd.c.x.z.( m r.",
"A.].v 0 f k E ~ s 4 s }. X&.jXcX8X(.!././.!.~.W.!.!.!.!.!.!.!.cXBX+X< @ j.L.f.{.L.i.c.x.v.` : e.",
"w.[.s 0 h U k & @ o X + + + @ 7 } 4.2.,.Y.).!.!.~.~.T.U.U.T.(.vXZX2X< = #.v.n #XL.i.u.c.x.y.: 9.",
"r.'.i 0 f U k 1 a ` ! &.-X8 . w r 4.=.=.1.-.1.<.<.>.<.:.<.,.R.3XxXrXu l &XfXuX,Xi.c.c.u.x.k.V H ",
"r.[.i 0 h k T ^ / ~ ! m.lXdX= # V.J.<.1.=.=.-.U.-.1.2.,.>.1.<.%   XX| l *XVXCXF.i.c.i.c.x.` , H ",
"w.'.i 0 f v T W ~ ~ /  XuXlX3X  3 J.J.;.=.-.T.8X*.$ o @.| +.o X | kX&.| &XVXxX{ c.c.c.c.x.` : 9.",
"w._.s 9 f x E W W ~ O.iXeXaXlXXXL ,.<.1.<.W.(.qX4X* . #   #   OXjXkX X XmXVX=X{ i.i.i.c.x.] m 0.",
"d.].7.9 f k U E Y R +.3.yXcXdXjX8X!.!.T.!.~.!.7XaX) L *.#.m.OXfXtXtX.X&XZXCX' [ u.u.u.x.x.P , a.",
"K.G.y.9 i z k k k T W ;XvXZXfXsX8X!.!.~./.~.!.qXjXrX*.=XrXkXkXsXtXrXXXeXmXuX] [ u.x.[ l.l.S m '.",
"AXD.n.0 t f z j k k Y 1XNXMXhXaX8X!.!.~.~.!.!.7XjX9X.XN.tXsXtXsXsX4X.X*.-XV.{ [ [ u.u.%.%.V A AX",
"AXa.].i q f a j j k k oXNXcXhXcXqX!.!.~.!.T.T.Y.Q.E.H.J.^.>X>X:XkX-X-X;XN.` / ~ ~ ` ` t./ , 6.AX",
"AXs._.Q 9 p i j j k k @XvXgXhXgX8X!.~.!.!.T.R.4.4.R.R.Y.T.!.!.^.sX=XN.rXO.! R ~ W ~ ( g.P M a.AX",
"AXAXA.n.0 p f h j x h m.cXdXdXfX7X!.!.!.!./.!.).).T.4.R.)././.!.aX-X*.eX~ ! W Q R R Q ^ 2 A AXAX",
"AXAXa.].k q f j z k a j.jXgXaXgX8X!.!.!./.!.!././.W.).T.4.^.!.>XtX-X=X+XR W W ~ W T E U : 9.AXAX",
"AXAX[.A.b.q f z c E v  .rXgXdXfX7X!.!.!.).T.R.4.4.).!.).).).!.^.sXfXrX$.R R W W W E E S N '.AXAX",
"AXAXAXa.'.Q q z z c E U XXgXdXfXqXE.4.4.Y.E.T.2.2.2.2.>.T.>X/.>XtXkXOXY W W W W W W s > 5.AXAXAX",
"AXAXAXAXA.n.i d z k E c M.gXaXhXdX;X3X4X.X.X$.L $.=XL K *.sX-XgX-X#.o.W ~ ~ W W E E > A <XAXAXAX",
"AXAXAXAXS.D.y.d g z c E +.-XaXaXaXaXgXgXrX.XL K *.=X*.K *.1XXXtX+XR ~ o.W ~ W Q E 5 A A.AXAXAXAX",
"AXAXAXAXAXw._.7.d c b E  .N.3XgXaXdXdXaXgXaX.X+X-X2X*.&.=X+X.X1Xm.W W W o.......P , 6.AXAXAXAXAX",
"AXAXAXAXAXAXq.S.7.g b b E +.N.aXgXgXgXdXgXaX=X+XeXrX-XeXrX-X.X=X+.W E  .o.o.X.U m J AXAXAXAXAXAX",
"AXAXAXAXAXAXAXw.K.7.z b b c  .XX4X3X3XdXaX4X.X.XXX-XeX2XrX-XoXOXd f...Q f.h.P > J AXAXAXAXAXAXAX",
"AXAXAXAXAXAXAXAX9.s.7.f z v }.OXM.N..XN.=X=XXX| y &..X=X=X&.$X}.e d j.j.j.I B H AXAXAXAXAXAXAXAX",
"AXAXAXAXAXAXAXAXAXr.r.d.s @.n #.4X#.l r - r - * * u | &.| OXkXl 7 6 8 B.S N 5.AXAXAXAXAXAXAXAXAX",
"AXAXAXAXAXAXAXAXAXAXa.q.p.n.8 r cX4X$.* % % % % % - y | $XiX%X% e w 1 A G a.AXAXAXAXAXAXAXAXAXAX",
"AXAXAXAXAXAXAXAXAXAXAXAXr.w.8.( =X3XuXN.- $ % * * - $.2XiXOXr * 5 D G 9.[.AXAXAXAXAXAXAXAXAXAXAX",
"AXAXAXAXAXAXAXAXAXAXAXAXAXK.w.Z.e.8.n.L.) ; * * ; r M.-Xk.P D A G 9.K.AXAXAXAXAXAXAXAXAXAXAXAXAX",
"AXAXAXAXAXAXAXAXAXAXAXAXAXAXAXAXw.w.9._ _ 0._ F _ J D J G J 9.a.AXAXAXAXAXAXAXAXAXAXAXAXAXAXAXAX",
"AXAXAXAXAXAXAXAXAXAXAXAXAXAXAXAXAXAXAXS.a.w.e.0.9.e.w.p.S.AXAXAXAXAXAXAXAXAXAXAXAXAXAXAXAXAXAXAX"
};
