/* XPM */
static char *result[] = {
/* columns rows colors chars-per-pixel */
"48 48 243 2 ",
"   c #0F0E0E",
".  c #261816",
"X  c #251916",
"o  c #351D17",
"O  c #3C241D",
"+  c #31211E",
"@  c #2E231E",
"#  c #2B2727",
"$  c #3A2824",
"%  c #3E322C",
"&  c #35353D",
"*  c #1F273A",
"=  c #42261E",
"-  c #452923",
";  c #42332E",
":  c #48362C",
">  c #54332A",
",  c #4A3B35",
"<  c #583832",
"1  c #532F22",
"2  c #613E2C",
"3  c #754A11",
"4  c #7C5114",
"5  c #794C0E",
"6  c #55443A",
"7  c #514A3C",
"8  c #724C31",
"9  c #7E6034",
"0  c #594842",
"q  c #545343",
"w  c #595644",
"e  c #5C594A",
"r  c #4F4D5A",
"t  c #654A45",
"y  c #655A4B",
"u  c #695A59",
"i  c #755D56",
"p  c #744F43",
"a  c #6C644D",
"s  c #65614E",
"d  c #72664D",
"f  c #79684A",
"g  c #646354",
"h  c #6C6652",
"j  c #6A6859",
"k  c #716752",
"l  c #746A54",
"z  c #7B6C54",
"x  c #746D5A",
"c  c #796B5B",
"v  c #7D715C",
"b  c #7A7059",
"n  c #6B6569",
"m  c #786966",
"M  c #7B7663",
"N  c #7C7070",
"B  c #535160",
"V  c #875817",
"C  c #92621C",
"Z  c #8F601F",
"A  c #845D27",
"S  c #864E3C",
"D  c #8C6326",
"F  c #996A26",
"G  c #896637",
"H  c #946C35",
"J  c #9C753B",
"K  c #A3732C",
"L  c #A87A36",
"P  c #885949",
"I  c #855B51",
"U  c #975A47",
"Y  c #856B4A",
"T  c #8B724A",
"R  c #846D53",
"E  c #8A6857",
"W  c #97695A",
"Q  c #837255",
"!  c #8B7256",
"~  c #84735B",
"^  c #8C745A",
"/  c #8C7957",
"(  c #92755B",
")  c #947B5B",
"_  c #9B7B5C",
"`  c #967855",
"'  c #926D45",
"]  c #BC6C55",
"[  c #A37D5C",
"{  c #AA7D5A",
"}  c #B37F5B",
"|  c #B57758",
" . c #A7704D",
".. c #966D61",
"X. c #8C7D64",
"o. c #877968",
"O. c #927C63",
"+. c #987867",
"@. c #877975",
"#. c #8B6F66",
"$. c #A6796A",
"%. c #B77A68",
"&. c #AA7D72",
"*. c #AE776D",
"=. c #C26E4F",
"-. c #C36F50",
";. c #C57052",
":. c #CC7455",
">. c #CD7758",
",. c #CF7859",
"<. c #D57B5B",
"1. c #DC7C5D",
"2. c #D27757",
"3. c #E07F5F",
"4. c #D97E61",
"5. c #C3786D",
"6. c #B1823D",
"7. c #AD813D",
"8. c #99835B",
"9. c #AC8345",
"0. c #B48642",
"q. c #B68945",
"w. c #B98B46",
"e. c #B68C4C",
"r. c #BA8D4B",
"t. c #BD914E",
"y. c #AD805E",
"u. c #A68858",
"i. c #B4815E",
"p. c #BB825E",
"a. c #B98F52",
"s. c #BC9353",
"d. c #BB945A",
"f. c #8D826B",
"g. c #86816D",
"h. c #98836B",
"j. c #8D8572",
"k. c #8D837F",
"l. c #9A877B",
"z. c #99917C",
"x. c #AC8162",
"c. c #A78567",
"v. c #B48564",
"b. c #BB8461",
"n. c #B58967",
"m. c #BA9866",
"M. c #AA8878",
"N. c #B6877A",
"B. c #BB977C",
"V. c #AD9067",
"C. c #C19654",
"Z. c #C39A5C",
"A. c #C69955",
"S. c #C08957",
"D. c #CBA05E",
"F. c #DC8364",
"G. c #DC866A",
"H. c #C39B65",
"J. c #C79676",
"K. c #C98A74",
"L. c #E38464",
"P. c #E98565",
"I. c #E58A6B",
"U. c #ED8C6C",
"Y. c #E28768",
"T. c #F18E6D",
"R. c #EE9374",
"E. c #F59474",
"W. c #F89675",
"Q. c #F4997A",
"!. c #F99979",
"~. c #F89878",
"^. c #EE8F6F",
"/. c #CDA363",
"(. c #CAA56A",
"). c #C4A26A",
"_. c #D2AA6B",
"`. c #D3AF76",
"'. c #E1805F",
"]. c #657781",
"[. c #7C8284",
"{. c #998A85",
"}. c #9D9289",
"|. c #929292",
" X c #A78B84",
".X c #BB8E83",
"XX c #B68D84",
"oX c #A99389",
"OX c #B99488",
"+X c #AA9994",
"@X c #BB9C93",
"#X c #B6A294",
"$X c #A9A098",
"%X c #AEA4A3",
"&X c #B6A9A5",
"*X c #B7B3B1",
"=X c #A89FA0",
"-X c #C2968A",
";X c #C4998D",
":X c #C59387",
">X c #C79D93",
",X c #CF9388",
"<X c #EA9B83",
"1X c #CAA289",
"2X c #CCA69B",
"3X c #CAA497",
"4X c #D5A99D",
"5X c #D6A598",
"6X c #D8B684",
"7X c #ECA38C",
"8X c #F1A38B",
"9X c #E7AA97",
"0X c #F3AB94",
"qX c #F9B19A",
"wX c #CBABA2",
"eX c #D6ADA2",
"rX c #C7B3A9",
"tX c #DEB6AA",
"yX c #D9B5A9",
"uX c #C3B6B5",
"iX c #D7BDB5",
"pX c #E5B4A6",
"aX c #E4B6A9",
"sX c #E8B7A9",
"dX c #E4B9AC",
"fX c #EBB9AC",
"gX c #E8B4A5",
"hX c #E6BDB2",
"jX c #F1BCAE",
"kX c #D0C3BB",
"lX c #E9C5BB",
"zX c #F1C5BA",
"xX c #D1C9C6",
"cX c #DCD9D8",
"vX c #CECAC9",
"bX c #E7CEC7",
"nX c #F1CCC3",
"mX c #E7D1CC",
"MX c #E9DAD7",
"NX c #F2DCD8",
"BX c #F2EBE5",
"VX c #EEE0DD",
"CX c None",
/* pixels */
"CXCXCXCXCXCXCXCXCXCXCXCXCXCXCXCXCXCXCXd.e.a.a.q.w.w.a.d.).CXCXCXCXCXCXCXCXCXCXCXCXCXCXCXCXCXCXCX",
"CXCXCXCXCXCXCXCXCXCXCXCXCXCXCXCXs.t.q.q.w.7.7.9.7.J 7.K K 6.w.d.CXCXCXCXCXCXCXCXCXCXCXCXCXCXCXCX",
"CXCXCXCXCXCXCXCXCXCXCXCXCXCXt.w.w.a.9.T / Y z / b / 8.z T J D K L w.d.CXCXCXCXCXCXCXCXCXCXCXCXCX",
"CXCXCXCXCXCXCXCXCXCXCXCXt.t.s.u.T l l j x M g.g.g.j.g.j.j.g./ T H D L t.CXCXCXCXCXCXCXCXCXCXCXCX",
"CXCXCXCXCXCXCXCXCXCXD.w.A.u.z h j x v o.f.f.f.h.h.h.h.f.f.8.X.X./ T H V L Z.CXCXCXCXCXCXCXCXCXCX",
"CXCXCXCXCXCXCXCXCXt.t.d.` s g x v v o.X.f.f.}.}.}.l.{.X./ _ ) _ _ +.O.' A F w.CXCXCXCXCXCXCXCXCX",
"CXCXCXCXCXCXCXCX6.D.d.h s j b ~ v o.z.@.m u N u u u {.%Xk.M.M.[ [ [ [ O.` D V 6.CXCXCXCXCXCXCXCX",
"CXCXCXCXCXCXCXr.D.8.g j b b b b j.%Xu # X X X X o % y +X+X@.*XrX_ } { u.+.O.G V L CXCXCXCXCXCXCX",
"CXCXCXCXCXCXw.D.8.s j b v R z +XxXc + X X X X X X X . # + % N vX|.P y.[ _ [ h.H V 7.CXCXCXCXCXCX",
"CXCXCXCXCXt.D.u.s j l l z X.vXMXi O O $ = $ O O O $ O - < - : #.%X+XB.[ [ y.c.+.G V q.CXCXCXCXCX",
"CXCXCXCX(.A.m.e g l z Q z xXxXn S :.:.<.F.Y.F.F.2.>.:.;.;.=.:.] ; @.*X$.y.y.y.u.h.D V H.CXCXCXCX",
"CXCXCXCXw.).f w h f R R *XuX< $ S P.E.~.~.~.~.~.R.U.Y.4.<.2.2.] $ + N {.[ { y.c.c._ 4 K CXCXCXCX",
"CXCXCXC././ 7 h f Q Y @X*X% . $ %.!.W.E.E.E.E.R.E.R.E.U.P.Y.U.;.% , , |.+.} y.i.x.M.` V 0.CXCXCX",
"CXCXCXs.(.7 s d l R +.%X- . - OX0XW.E.E.E.Q.Q.E.E.E.E.^.T.^.~.I.0 0 0 %XuXv.i.v.v.v.V.4 C (.CXCX",
"CXCXC./.Q 7 d d z Y oXe O 6 .XhX7XE.E.E.E.E.E.E.E.E.E.E.T.U.E.~.M.; 6 k.MX2Xp.n.n.n.M.O.V 0.CXCX",
"CXCXC.).7 a l z R Y rXc > #.eXhX7XE.!.~.E.E.E.<X7X7X7X7X7X7X7X9XaXi % , }.mXb.b.b.n.|.#XA F CXCX",
"CXD./.8.q a f z ! R kXuX&X.XyXtX7X!.!.E.E.E.E.7XkXtXtXtXtXtXtXmXmXXX; ; 0 uXJ.b.b.{.uXOXR V r.CX",
"CXt./.a q d z Q ! ! kXVX#XOXtXhXqX!.!.E.E.E.E.7XtXtXtXtXtXtXtXmXmXeXt ; ; {.1Xp.M.*XkXV.V.4 L CX",
"CXA.).7 y d z / ( ( xXrXI eXaXhX0XE.Q.!.E.E.E.7XtXtXtXiXtXyXtXbXMXlX#., ; @.>X>.}.xXd.i.M.D F CX",
"CXD.V.7 a z Q , % 6 m @.#.eXyXhX7X^.E.~.~.~.E.8XgX9X9X9X9X9XgXbXMXmXM., ; @.J.v.|.1Xi.n.V.' V d.",
"a././ q l 7 X : $ @ $ #     $ # U F.2.<.L.U.^.^.E.E.U.F.'.'.T.zXVXMX@X, 6 h.n.{.$Xd.i.n.n.8.V e.",
"s._.Q w z y y Q 8.` XXaX#.  n # W :.-.-.-.-.-.:.:.,.:.>.:.2.'.J.rXiX3X0 m rX}.].B.i.p.v.v._ 4 e.",
"w._.d w k b ^ ! ( ` oXjXjXu   [.W I.-.-.-.] :.I.,.] :.F.>.<.;.=   # @Xi m @XM $XJ.5.p.v.v.[ 5 0.",
"e._.a w k z ~ ! ( ` OXyXfXdX,   N.F.F.-.-.,.^.~.P.-.;.F.G.Y.<.+ . XXpX@.#.oXwX3X} S.p.p.n.c.V 6.",
"a._.d w h b Q / ! c.iXwXpXfX5X# P 1.2.:.1.E.E.E.T.'.;.:.2.2.:.p >XhXaX X{.vXBXS.p.b.p.i.v.[ 3 7.",
"w._.d w h b Q / ( +.,XtXhXpXfXaX<XW.3.3.T.W.E.8X9X| U %.%.,XN.5XdXtXyX+X%XcXlX| p.b.b.b.v._ 4 0.",
"s.(.z q h z ! ! ( ( K.nXNXhXgXfX<XW.W.<X<XW.W.8XlX1X$.*.;XyXfXaXtXaXwX XuXcX,X| p.p.p.b.v.[ V q.",
"e._.8.7 h c R ~ ~ ..eXnXNXfXpXaX8XE.W.W.W.W.E.8XlXgX,XN.4XdXtXtXpXaX>X+XXX.Xv.%.i.i.i.i.v.' 5 t.",
"d.D.u.q h l b z R R >XnXnXpXaXjX0XT.W.W.<XE.E.<XaX,X*.%.>XpXtXtXtXaX;X>X5. .} } i.i.i.x.x.G V ).",
"CXZ.m.w y h l l l l ;XnXfXpXpXnXqXW.E.W.E.3.3.5.t ,XW ..:XtXhXdXtXtX.X;X5X*.} } i.y.y.x.$.A F CX",
"CXt._.a e a k l c k OXjXaXaXgXfX0XT.E.W.E.T.T.4.-.4.4.4.I.<X7X7XpXaX:XK.eX$.` _ ` [ [ x.) 3 7.CX",
"CXd.(./ q h h k l i oXnXgXpXgXsX8XW.E.E.W.W.W.W.W.T.U.P.P.T.E.Q.tXdX.XN.2XW ! ( ^ ^ ( c.' V s.CX",
"CXCXA.m.w g h h l k l.zXaXgXaXaX8XE.W.<XW.W.8XW.<X<XT.T.U.^.E.Q.tXtX,X>XN./ ^ / ! ! ^ h.9 C CXCX",
"CXCXt._.z e k l x z x 2XfXgXgXaX8XE.E.3.T.3.3.3.3.3.W.T.^.T.E.Q.tXtXhX5X( ! ^ ( ! ! ~ z 5 6.CXCX",
"CXCX`.C.V.w j b b ~ l B.fXgXaXaX8X3.3.3.T.E.3.3.3.3.3.3.U.E.W.~.tXaXaX X! ! ^ ^ ^ R ~ G C H.CXCX",
"CXCXCXs././ e j b v b M.fXgXgXaX8XW.<XR.U.3.3.4.4.^.3.2.4.~.R.<XaXOXl.( ! / ~ ^ ^ o.f 4 6.CXCXCX",
"CXCXCXCXC.m.g h x v z O.5XgXgXgXpXgXgXgX5X*.I P *.:X:XU ..eXOX>XaXM.! ^ ( ^ ( ^ ^ ~ 4 F 6XCXCXCX",
"CXCXCXCXD.C.u.g j v z o.N.eXaXpXaXaXpXpXsX4XN.XX>X>X&.&.&.:X.X.XeX+.( ^ ( ( / / ~ G D A.CXCXCXCX",
"CXCXCXCXCXt.D.8.g m v v +..XgXaXgXsXgXgXsXpX.X>XwXeXXXOXwX>X.X.XOXO.^ ! O.( X.g.f V 6.CXCXCXCXCX",
"CXCXCXCXCXCXq.Z.8.j v M o.( .XpXpXpXsXaXgX4XXX;X2X2XyXwXeXwX>X;X{.c ^ o.O.f.o.Y V K CXCXCXCXCXCX",
"CXCXCXCXCXCXCXw.Z.8.j M ~ @. XN.:X:X>X5XeX;X.X&...XX;X-X;X@X&.wXm j ~ f.X.j.Y V L CXCXCXCXCXCXCX",
"CXCXCXCXCXCXCXCXw.d.8.j j |.M.;X$.M...I &.$.I p p E &..XXX&.XXiX< r & M z.T Z L CXCXCXCXCXCXCXCX",
"CXCXCXCXCXCXCXCXCXr.C.a.o.n , aX>X..8 1 - - - = - 8 W ....XXiX>X$ B * 7 H D 6.CXCXCXCXCXCXCXCXCX",
"CXCXCXCXCXCXCXCXCXCXZ.w.s.` 6 5XdX5X..> - - = 1 > > i ..@XiX>XP o u 8 A K s.CXCXCXCXCXCXCXCXCXCX",
"CXCXCXCXCXCXCXCXCXCXCXCXt.t.e.V.1X4XtXM.> = : > > < $.rXrX@XE 8 8 H F 6.`.CXCXCXCXCXCXCXCXCXCXCX",
"CXCXCXCXCXCXCXCXCXCXCXCXCXa.r.w.e.9.m.J.' 6 1 > > 2 &.OXc.' H F L 0.(.CXCXCXCXCXCXCXCXCXCXCXCXCX",
"CXCXCXCXCXCXCXCXCXCXCXCXCXCXCXCXr.w.0.9.L 0.J J  .L H L K L q.s.CXCXCXCXCXCXCXCXCXCXCXCXCXCXCXCX",
"CXCXCXCXCXCXCXCXCXCXCXCXCXCXCXCXCXCXCXd.a.r.r.w.6.q.e.a.d.CXCXCXCXCXCXCXCXCXCXCXCXCXCXCXCXCXCXCX"
};
