/* XPM */
static char *result[] = {
/* columns rows colors chars-per-pixel */
"48 48 226 2 ",
"   c #050509",
".  c #1A1817",
"X  c #1E100C",
"o  c #221310",
"O  c #271C1A",
"+  c #361F19",
"@  c #20120F",
"#  c #3F211C",
"$  c #382A26",
"%  c #393438",
"&  c #3C302F",
"*  c #43231C",
"=  c #4C261E",
"-  c #4C2B24",
";  c #542E25",
":  c #49382D",
">  c #57322A",
",  c #443633",
"<  c #493C38",
"1  c #5A3933",
"2  c #623D34",
"3  c #4F4736",
"4  c #534D3A",
"5  c #53463A",
"6  c #57523E",
"7  c #64433E",
"8  c #774432",
"9  c #584D48",
"0  c #565443",
"q  c #5A5644",
"w  c #5E5C4A",
"e  c #5B5844",
"r  c #585058",
"t  c #464851",
"y  c #684B44",
"u  c #625E4C",
"i  c #68554A",
"p  c #73524C",
"a  c #655753",
"s  c #735953",
"d  c #795D59",
"f  c #64614C",
"g  c #6A634D",
"h  c #78664E",
"j  c #656454",
"k  c #6D6651",
"l  c #6C6A5D",
"z  c #6E6458",
"x  c #736751",
"c  c #756A54",
"v  c #7C6C54",
"b  c #746D5B",
"n  c #7A6E5A",
"m  c #77615C",
"M  c #7C715C",
"N  c #6A5D62",
"B  c #6B6665",
"V  c #7B786A",
"C  c #6A7074",
"Z  c #746B6A",
"A  c #9D5942",
"S  c #8B5A53",
"D  c #A35D45",
"F  c #836E54",
"G  c #8A6E53",
"H  c #856A5E",
"J  c #9D6458",
"K  c #857157",
"L  c #8C7156",
"P  c #84735A",
"I  c #8D7459",
"U  c #8B785D",
"Y  c #967453",
"T  c #9C7655",
"R  c #9C7857",
"E  c #92765A",
"W  c #93795C",
"Q  c #9C7B5C",
"!  c #8F6B4C",
"~  c #A6634C",
"^  c #B96C57",
"/  c #A47C5C",
"(  c #AC7D5C",
")  c #A77855",
"_  c #B57B58",
"`  c #BB6B4F",
"'  c #876A64",
"]  c #966F64",
"[  c #857A63",
"{  c #8A7A63",
"}  c #867568",
"|  c #927C63",
" . c #997A69",
".. c #8A7B76",
"X. c #9B7A72",
"o. c #917A75",
"O. c #A37A6A",
"+. c #A77967",
"@. c #B67E73",
"#. c #C26D4E",
"$. c #CC7555",
"%. c #C77458",
"&. c #D4795A",
"*. c #DC7C5B",
"=. c #D17757",
"-. c #CC704F",
";. c #E37E5D",
":. c #D47F62",
">. c #C67C62",
",. c #AD805E",
"<. c #A7805F",
"1. c #B4815E",
"2. c #BB835E",
"3. c #8D826B",
"4. c #94856C",
"5. c #9C8468",
"6. c #848173",
"7. c #8A867A",
"8. c #988876",
"9. c #9E927F",
"0. c #AC8362",
"q. c #A68569",
"w. c #B48462",
"e. c #BB8561",
"r. c #B98869",
"t. c #AC8E73",
"y. c #AB857B",
"u. c #A58778",
"i. c #B2867C",
"p. c #B28A7D",
"a. c #BA887C",
"s. c #A8927B",
"d. c #B6987E",
"f. c #C3825A",
"g. c #DE805E",
"h. c #E0805E",
"j. c #C68667",
"k. c #DB8162",
"l. c #D58166",
"z. c #CB8C74",
"x. c #E38464",
"c. c #EA8666",
"v. c #EC8B6B",
"b. c #E78868",
"n. c #F38E6D",
"m. c #F28A67",
"M. c #F6926F",
"N. c #E49379",
"B. c #F59474",
"V. c #F99573",
"C. c #F59779",
"Z. c #F39A7C",
"A. c #FB9979",
"S. c #FE9876",
"D. c #EB8F71",
"F. c #837F8B",
"G. c #978987",
"H. c #94938B",
"J. c #9C9793",
"K. c #A88D87",
"L. c #BA8E84",
"P. c #B78C81",
"I. c #AC968C",
"U. c #A89889",
"Y. c #BD9386",
"T. c #BD958A",
"R. c #B69989",
"E. c #A29894",
"W. c #B69A94",
"Q. c #BAA697",
"!. c #B5A896",
"~. c #ABA7A6",
"^. c #B7ACA8",
"/. c #B7B2A8",
"(. c #B7BDBB",
"). c #C29487",
"_. c #C4998C",
"`. c #C69887",
"'. c #C59C91",
"]. c #D29F95",
"[. c #D39B8A",
"{. c #E89C83",
"}. c #F19E84",
"|. c #CBA59B",
" X c #C8A699",
".X c #D2AA9D",
"XX c #D5A699",
"oX c #CAA083",
"OX c #ECA28B",
"+X c #EFA087",
"@X c #F2A58C",
"#X c #F0A187",
"$X c #F4AB94",
"%X c #ECA893",
"&X c #C8AAA3",
"*X c #D3AEA3",
"=X c #DCACA0",
"-X c #DCB2A5",
";X c #DEB6AA",
":X c #DDB8AE",
">X c #D4B5A8",
",X c #C7BBB2",
"<X c #CBB4A8",
"1X c #E3AFA2",
"2X c #E4B4A5",
"3X c #E4B6A9",
"4X c #E8B7A9",
"5X c #E3B9AD",
"6X c #EABAAC",
"7X c #E5B9A6",
"8X c #E7BDB3",
"9X c #DAC1B8",
"0X c #CDC0BC",
"qX c #E9C2B8",
"wX c #F4C5B7",
"eX c #C5BEC0",
"rX c #CEC8C8",
"tX c #E8CCC4",
"yX c #E6D4CE",
"uX c #ECDCDA",
"iX c #F5DAD4",
"pX c #F1D5CF",
"aX c #EAE1DD",
"sX c #F1E5DB",
"dX c #F6EEEB",
"fX c None",
/* pixels */
"fXfXfXfXfXfXfXfXfXfXfXfXfXfXfXfXfXfXfXfXfXfXfXfXfXfXfXfXfXfXfXfXfXfXfXfXfXfXfXfXfXfXfXfXfXfXfXfX",
"fXfXfXfXfXfXfXfXfXfXfXfXfXfXfXfXfXfXfXfXfXfXfXfXfXfXfXfXfXfXfXfXfXfXfXfXfXfXfXfXfXfXfXfXfXfXfXfX",
"fXfXfXfXfXfXfXfXfXfXfXfXfXfXfXfXfXfXfXfXfXfXfXfXfXfXfXfXfXfXfXfXfXfXfXfXfXfXfXfXfXfXfXfXfXfXfXfX",
"fXfXfXfXfXfXfXfXfXfXfXfXfXfXfXfXfXfXfXfXfXfXfXfXfXfXfXfXfXfXfXfXfXfXfXfXfXfXfXfXfXfXfXfXfXfXfXfX",
"fXfXfXfXfXfXfXfXfXfXfXfXfXfXfXfXfXfXfXfXE.9.3.V [ 6.7.U./.fXfXfXfXfXfXfXfXfXfXfXfXfXfXfXfXfXfXfX",
"fXfXfXfXfXfXfXfXfXfXfXfXfXfXfXfXfXG.b k k M V 3.3.4.4.U 3.M 3.!.fXfXfXfXfXfXfXfXfXfXfXfXfXfXfXfX",
"fXfXfXfXfXfXfXfXfXfXfXfXfXfXfXV f k n [ 3.4.3.4.4.4.4.3.U 3.U K I s.fXfXfXfXfXfXfXfXfXfXfXfXfXfX",
"fXfXfXfXfXfXfXfXfXfXfXfXfX6.u k n M [ 3.4.4.8.s.8.9.5.<.T R <.<.<.Y W R.fXfXfXfXfXfXfXfXfXfXfXfX",
"fXfXfXfXfXfXfXfXfXfXfXfXl f n M M U U 5.u.o.3.G.8.6.o.U.5. .( ) ) <./ Y q.fXfXfXfXfXfXfXfXfXfXfX",
"fXfXfXfXfXfXfXfXfXfXfXj f M M P K K 8.G.z < % , & : r H.~.G.W.s.) 1./ Q Y 5.fXfXfXfXfXfXfXfXfXfX",
"fXfXfXfXfXfXfXfXfXfXj f v n K G G U.^.m O o @ @ X O + 3 9 9 G.rXo.! ( / / R <.fXfXfXfXfXfXfXfXfX",
"fXfXfXfXfXfXfXfXfXw u n v L L | ,XqXj.D A ~ D D D D D A A D ^ ].~.U.0.1.<.<.R 5.fXfXfXfXfXfXfXfX",
"fXfXfXfXfXfXfXfXj 6 h v L L F /.9Xj.-.=.k.b.b.b.x.*.*.&.=.=.*.~ 9 J.I.) ,.,.,.R s.fXfXfXfXfXfXfX",
"fXfXfXfXfXfXfX7.3 c v K Y G ^./.5 A x.v.B.C.C.B.B.B.b.k.&.=.;.~ $ < G.X.1.1.,.0.<.Q.fXfXfXfXfXfX",
"fXfXfXfXfXfXfX4 g x v L G U.~.$ X ~ A.C.B.B.B.B.B.B.B.B.v.b.M.` , < l J.( 1.1.1.0.0.fXfXfXfXfXfX",
"fXfXfXfXfXfXl 6 x h G L Y U.- + i {.S.B.B.B.C.B.B.B.B.B.v.v.S.N.i < m 0X'.2.1.r.r.<.!.fXfXfXfXfX",
"fXfXfXfXfXfX3 g h v K G u.} + s XX$Xn.C.B.B.B.C.OXOXOXOXOXOXOX%XP., < J.yXe.2.e.e.H.U.fXfXfXfXfX",
"fXfXfXfXfXV 4 x v K L ! R.^.o.K.-XOXV.A.C.C.B.Z.:X:X:X:X:X;X>XtXqXs $ 5 ^.XX2.2.8.(.d.Q.fXfXfXfX",
"fXfXfXfXfXe u h v L I ! R.aX0XT.;XOXS.A.C.B.B.Z.;X;X7X;X;X;X:XyXpXy.: $ } *X2.w./.0Xr.t.fXfXfXfX",
"fXfXfXfXfX4 g v K I W <.Q.aXu.|.wXOXV.A.A.C.B.Z.;X;X:X:X3X;X:XyXuX|.y & a  Xf.u.(.oX2.q.fXfXfXfX",
"fXfXfXfX7.4 x v K h 3 - a Z d  X|.{.V.D.B.A.A.Z.OXOXOXOX{.{.OXtXuXqXd $ a oXe.H.R.2.w.0.0XfXfXfX",
"fXfXfXfXB e c K 4 $ 3 3 , 5 $ . < ~ x.=.=.*.b.v.v.M.M.c.*.h.M.wXdXiXH < V z.7.H.j.1.e.0.!.fXfXfX",
"fXfXfXfXw u c K v h Y T ] |.@.. t r.*.#.#.#.%.#.$.$.$.$.$.$.&.O.G.Q.X.i I.W.C U.j.2.e.,.d.fXfXfX",
"fXfXfXfXq u v F L E R T u.5X8XX.. +.D.:.%.#.#.=.v.$.#.&.k.k.$.+   d R.p G.U.U.z.2.e.e.w.t.fXfXfX",
"fXfXfXfX0 f c F P E Y Y Y.&X3X6Xd p ;.:.%.#.;.M.S.b.-.$.:.k.&.$ m 3X|.' E.aX9X_ 2.2.e.w.t.fXfXfX",
"fXfXfXfX0 w b F P E Y E '.*X3X6X1X:.;.:.:.;.V.V.#XN.` ^ %.>._ p.5X5X|.K.rXdXoX` j.2.e.w.q.fXfXfX",
"fXfXfXfXw w c v I L E | ^ 1XiX8X2X@XV.V.V.}.V.}.4X3X+.J P.|.;X5X:X5XT.W.rXsX@._ 2.2.2.1.t.fXfXfX",
"fXfXfXfXl e c F K I I L Y.qXiX8X2X}.V.V.V.V.}.}.6XwX1Xa.[.5X3X3X:X5XL.W.&X,X_ _ 1.2.2.,.Y.fXfXfX",
"fXfXfXfXV 0 k c n F P F P.wXtX2X4X@XV.V.V.V.n.}.].*X).+.L.;X5X;X;X;XL.).^ r._ 1.1.1.w.<.Q.fXfXfX",
"fXfXfXfXfX0 j c c v v F y.8X8X2X4X@XV.V.V.}.;.;.S S >.J @.=XqX:X5X=Xa.XXa.( 1.,.1.,.,.R fXfXfXfX",
"fXfXfXfXfXe f k c c c v  .8X6X3X3X}.V.V.}.;.}.;.%.^ :.:.:.{.%X%X;X;X@.].a.Y Q R Q <.<.<.fXfXfXfX",
"fXfXfXfXfXV 0 k k c c v } 8X6X3X3X}.V.B.V.V.V.V.}.}.n.n.;.m.n.}.3X;X@.].q.L I I I W Y d.fXfXfXfX",
"fXfXfXfXfXfX0 j k c c c v  X6X4X4X}.V.V.B.V.v.v.v.n.V.n.v.D.M.}.3X;XXX).E I L I L I L fXfXfXfXfX",
"fXfXfXfXfXfXz w b c M v k u.4X4X4X#Xn.v.b.b.v.c.:.;.x.v.b.B.M.}.-X5X3XX.L I E I L v 8.fXfXfXfXfX",
"fXfXfXfXfXfXfX0 z n M P v  .3X3X2X}.m.v.v.v.n.v.v.c.c.:.;.n.n.}.3XW.u.I I K L I K x fXfXfXfXfXfX",
"fXfXfXfXfXfXfX6.0 n M M K I XX4X1X%X}.}.}.}.l.>.%.:.N.:.$.N.N.{.-X .G I I I I I h s.fXfXfXfXfXfX",
"fXfXfXfXfXfXfXfXj u M M K P p.XX6X4X4X5X5X4X=X@.P.T.T.O.O.L.L._. X| E L E W U G { fXfXfXfXfXfXfX",
"fXfXfXfXfXfXfXfXfXj k M P P | p.1X6X4X4X4X4X3X).'.>X].).&X].Y.).K.E U U W | K K fXfXfXfXfXfXfXfX",
"fXfXfXfXfXfXfXfXfXJ.j b [ [ U H L.=X1X1X4X4XXX).T._.|.1X*X*X_._.o.} { U | I P /.fXfXfXfXfXfXfXfX",
"fXfXfXfXfXfXfXfXfXfXG.l b [ P 8.K.P.P.).L._.).i.' ' F.[.).P.y.&XN B M  .{ [ ~.fXfXfXfXfXfXfXfXfX",
"fXfXfXfXfXfXfXfXfXfXfXfXZ k V G. . XX.d y p p 7 > 1 d X.X.o.&X&X< t % n 9.fXfXfXfXfXfXfXfXfXfXfX",
"fXfXfXfXfXfXfXfXfXfXfXfXfX6...N : 7X.X] ; * * # - - 7 d ] &X:X] & r   C fXfXfXfXfXfXfXfXfXfXfXfX",
"fXfXfXfXfXfXfXfXfXfXfXfXfXfXfXr X Y.wX-X@.2 * - > > y X.<X>XX.- o F.fXfXfXfXfXfXfXfXfXfXfXfXfXfX",
"fXfXfXfXfXfXfXfXfXfXfXfXfXfXfXfXfXK.7X2X-XE ; = > > p W.'.o.y y fXfXfXfXfXfXfXfXfXfXfXfXfXfXfXfX",
"fXfXfXfXfXfXfXfXfXfXfXfXfXfXfXfXfXfXfX9X>Xp.2 - 1 2 s o.G.I.fXfXfXfXfXfXfXfXfXfXfXfXfXfXfXfXfXfX",
"fXfXfXfXfXfXfXfXfXfXfXfXfXfXfXfXfXfXfXfXfXfXfXfXfXfXfXfXfXfXfXfXfXfXfXfXfXfXfXfXfXfXfXfXfXfXfXfX",
"fXfXfXfXfXfXfXfXfXfXfXfXfXfXfXfXfXfXfXfXfXfXfXfXfXfXfXfXfXfXfXfXfXfXfXfXfXfXfXfXfXfXfXfXfXfXfXfX",
"fXfXfXfXfXfXfXfXfXfXfXfXfXfXfXfXfXfXfXfXfXfXfXfXfXfXfXfXfXfXfXfXfXfXfXfXfXfXfXfXfXfXfXfXfXfXfXfX"
};
