/* XPM */
static char *result[] = {
/* columns rows colors chars-per-pixel */
"32 32 208 2 ",
"   c #2F2F2F",
".  c #3A2925",
"X  c #392D2A",
"o  c #232836",
"O  c #4B251E",
"+  c #4D2B23",
"@  c #41312C",
"#  c #57332A",
"$  c #4B3C3B",
"%  c #4A3A33",
"&  c #5D3831",
"*  c #623E37",
"=  c #574337",
"-  c #59523D",
";  c #764839",
":  c #4D4341",
">  c #514443",
",  c #5A4B47",
"<  c #595745",
"1  c #5D5A47",
"2  c #595746",
"3  c #6A4D43",
"4  c #6A4D49",
"5  c #645D47",
"6  c #615E4D",
"7  c #665547",
"8  c #775B4A",
"9  c #625D5D",
"0  c #6A5B56",
"q  c #745751",
"w  c #795A56",
"e  c #6B624C",
"r  c #67624C",
"t  c #78694F",
"y  c #656352",
"u  c #6B6653",
"i  c #6B6859",
"p  c #6E6854",
"a  c #716752",
"s  c #746953",
"d  c #7C6C54",
"f  c #756D59",
"g  c #7C665B",
"h  c #7E725B",
"j  c #736565",
"k  c #797566",
"l  c #777669",
"z  c #7E6F73",
"x  c #915844",
"c  c #846E54",
"v  c #896D52",
"b  c #86675D",
"n  c #847056",
"m  c #8C7256",
"M  c #84735B",
"N  c #8B745A",
"B  c #8D795E",
"V  c #9A7756",
"C  c #927659",
"Z  c #9C795A",
"A  c #977557",
"S  c #AF684E",
"D  c #AF6D5A",
"F  c #BE6E52",
"G  c #A37B5B",
"H  c #AB7D5C",
"J  c #A17957",
"K  c #B47E5B",
"L  c #B97C58",
"P  c #8C6E6A",
"I  c #926E66",
"U  c #8A7361",
"Y  c #8B7C64",
"T  c #857C6B",
"R  c #847860",
"E  c #9D7D61",
"W  c #977867",
"Q  c #857B74",
"!  c #927A73",
"~  c #AE7B6C",
"^  c #A17C67",
"/  c #B67965",
"(  c #AC7E74",
")  c #B67E72",
"_  c #C16D4E",
"`  c #C77153",
"'  c #CC7353",
"]  c #C7775E",
"[  c #D07354",
"{  c #D27A5B",
"}  c #D87D5D",
"|  c #E27F5F",
" . c #D67D62",
".. c #AC805D",
"X. c #B3805E",
"o. c #BB825E",
"O. c #8B826C",
"+. c #8F8066",
"@. c #9E846C",
"#. c #968469",
"$. c #9C8A74",
"%. c #9C8579",
"&. c #958979",
"*. c #A48062",
"=. c #A5856E",
"-. c #AC8469",
";. c #A9886C",
":. c #B48360",
">. c #BA8562",
",. c #B18867",
"<. c #A48A74",
"1. c #AB837A",
"2. c #A68A7A",
"3. c #B1887E",
"4. c #B38975",
"5. c #A5917F",
"6. c #B69377",
"7. c #E3805E",
"8. c #C68D69",
"9. c #C88168",
"0. c #D48163",
"q. c #DD8162",
"w. c #D4846E",
"e. c #C88F7E",
"r. c #C19275",
"t. c #E28464",
"y. c #E38A6B",
"u. c #EB8B6A",
"i. c #E98767",
"p. c #F18D6C",
"a. c #F2906F",
"s. c #E78E71",
"d. c #EC9173",
"f. c #ED967A",
"g. c #E7987F",
"h. c #F59474",
"j. c #F89675",
"k. c #F29679",
"l. c #F49A7C",
"z. c #F99979",
"x. c #9A8984",
"c. c #97968D",
"v. c #8B8784",
"b. c #A68B84",
"n. c #AC8B83",
"m. c #B68C85",
"M. c #A79688",
"N. c #BF9285",
"B. c #BA9988",
"V. c #AC9793",
"C. c #A59B95",
"Z. c #BB9C94",
"A. c #B9A18B",
"S. c #A3A196",
"D. c #BDA29B",
"F. c #B6AA99",
"G. c #A89FA2",
"H. c #B7ADAD",
"J. c #AEADAA",
"K. c #C39387",
"L. c #C3968A",
"P. c #CB9B8E",
"I. c #C79986",
"U. c #C89D93",
"Y. c #EE9E84",
"T. c #F49D81",
"R. c #C4A197",
"E. c #CDA99D",
"W. c #C8A69B",
"Q. c #D4A69A",
"!. c #D6AC9E",
"~. c #D7AA9A",
"^. c #C3B09E",
"/. c #D2A68B",
"(. c #EBA28B",
"). c #F2A086",
"_. c #F2A58D",
"`. c #E4AD9C",
"'. c #ECA994",
"]. c #CEADA3",
"[. c #D6ADA2",
"{. c #DDAEA3",
"}. c #C0B8AD",
"|. c #DCB1A6",
" X c #DDB6AC",
".X c #DDB8AE",
"XX c #D6B6A7",
"oX c #C5BBB8",
"OX c #DCBAB1",
"+X c #E0AFA1",
"@X c #E5B4A5",
"#X c #E9B5A6",
"$X c #E8B6A8",
"%X c #E2B8AC",
"&X c #EAB9AC",
"*X c #E3B7A9",
"=X c #F1BDAE",
"-X c #E9BEB3",
";X c #E3BDB3",
":X c #CFC2B6",
">X c #DEC1B6",
",X c #EAC3B9",
"<X c #DDD3D0",
"1X c #ECCEC6",
"2X c #E3C8C2",
"3X c #EFDDD8",
"4X c #EEE7E6",
"5X c None",
/* pixels */
"5X5X5X5X5X5X5X5X5X5X5X5X5X5X5X5X5X5X5X5X5X5X5X5X5X5X5X5X5X5X5X5X",
"5X5X5X5X5X5X5X5X5X5X5X5X5X5X5X5X5X5X5X5X5X5X5X5X5X5X5X5X5X5X5X5X",
"5X5X5X5X5X5X5X5X5X5X5X5XS.&.O.T O.&.S.H.5X5X5X5X5X5X5X5X5X5X5X5X",
"5X5X5X5X5X5X5X5X5X5Xk f f R O.#.#.+.+.N B $.5X5X5X5X5X5X5X5X5X5X",
"5X5X5X5X5X5X5X5Xl y f M O.#.$.5.$.#.E Z J J A <.5X5X5X5X5X5X5X5X",
"5X5X5X5X5X5X5Xu s n n B &.9 = > : f C.&.M.G H V #.5X5X5X5X5X5X5X",
"5X5X5X5X5X5X6 s c c <.^.b + + + + & ; w R.V.G ..G Z 5X5X5X5X5X5X",
"5X5X5X5X5X1 a n v 5.oX0.[ q.t.q.q.{ ` ' ` j V.......*.5X5X5X5X5X",
"5X5X5X5Xu 5 d v =.C.% F a.j.j.j.h.u.q.q.` . 9 %.K X...6.5X5X5X5X",
"5X5X5Xc.- t c C &.. = f.j.k.h.h.h.k.h.p.a.3 > H.r.X.,...:X5X5X5X",
"5X5X5Xy e c v @.! 4 Q.T.k.h.h.).`.`.`.`.#XB.@ Q XXo.o.M.F.5X5X5X",
"5X5X5X- t c m =.<XZ.{.T.z.h.h.(.OX.X X X2X1Xq X V.8.5.}.,.5X5X5X",
"5X5Xz 5 d n t m G.n.&XT.k.z.j.).@X`.`.`.,X3X2.. ! 8.S.e...^.5X5X",
"5X5Xu e t = = % , X , ] } } t.y.u.u.t.7._.4XZ.$ =.$.M.o.X.B.5X5X",
"5X5X1 a n n Z E |.I   9.{ _ _ { { ` { } x > 2.g M.v.6.o.X.6.5X5X",
"5X5X< p n N A =.XX=Xb S 0.` } h.i.` { q.; 0 [.! oX.Xo.o.X.,.5X5X",
"5X5X2 a n N C ~ @X-X#Xd.u.u.z.Y.'.D / e.U.-X[.V.4X/.L >.o.-.5X5X",
"5X5Xu r d M N E -X1X@XT.j.z.z._.,XP.m. X%X%XW.m.].,.K o.X.6.5X5X",
"5X5Xl 5 f d c W -X-X@XT.j.h.a. .( ) ~ {.;X%XU.K./ ..:.X.H A.5X5X",
"5X5X5X< a s s N  X&X@XT.h.j.k.| F  . .Y._.@XP.P.~ A Z ^ J 5X5X5X",
"5X5X5Xy r a s d ].&X@XT.j.j.a.a.k.h.p.p.k.@XQ.K.C m m m #.5X5X5X",
"5X5X5Xc.1 f d s 1.&X@Xk.u.i.u.i.| i.i.a.k.@X X=.m C N d F.5X5X5X",
"5X5X5X5Xi i M d W @X#XT.k.k.s.{  .y.{ s.f.[.W N m N n Y 5X5X5X5X",
"5X5X5X5X5X6 f M U K.$X@X$X$X~.3.U.K.( N.L.B.m N C m c 5X5X5X5X5X",
"5X5X5X5X5X5Xu h M U L.*X*X&X`.K.U.W.].].B.%.N Y Y M 5X5X5X5X5X5X",
"5X5X5X5X5X5X5Xi h T n.m.3.1.3.I w ( m.m.U.j 9 M Y 5X5X5X5X5X5X5X",
"5X5X5X5X5X5X5X5Xk z q !.I # + + + 4 P Z.Z.$ o 9 5X5X5X5X5X5X5X5X",
"5X5X5X5X5X5X5X5X5XG.% Q.@XI + + # w Z.Z.* : J.5X5X5X5X5X5X5X5X5X",
"5X5X5X5X5X5X5X5X5X5X5X5X>XQ.3 + & g b.b.5X5X5X5X5X5X5X5X5X5X5X5X",
"5X5X5X5X5X5X5X5X5X5X5X5X5X5X5X5X5X5X5X5X5X5X5X5X5X5X5X5X5X5X5X5X",
"5X5X5X5X5X5X5X5X5X5X5X5X5X5X5X5X5X5X5X5X5X5X5X5X5X5X5X5X5X5X5X5X",
"5X5X5X5X5X5X5X5X5X5X5X5X5X5X5X5X5X5X5X5X5X5X5X5X5X5X5X5X5X5X5X5X"
};
