/* XPM */
static char *result[] = {
/* columns rows colors chars-per-pixel */
"16 16 208 2 ",
"   c #4A2A26",
".  c #7A613E",
"X  c #6A4A47",
"o  c #675F4B",
"O  c #7A5244",
"+  c #725E48",
"@  c #745E4F",
"#  c #675854",
"$  c #6C5C56",
"%  c #745D51",
"&  c #6A614B",
"*  c #69624E",
"=  c #6A624F",
"-  c #756749",
";  c #72684C",
":  c #7F6D49",
">  c #7F704F",
",  c #686453",
"<  c #6C6451",
"1  c #736753",
"2  c #726A56",
"3  c #7A6851",
"4  c #796B53",
"5  c #7B6E52",
"6  c #72615D",
"7  c #746C59",
"8  c #7F6C67",
"9  c #7D6F6B",
"0  c #7C7261",
"q  c #8E6537",
"w  c #896939",
"e  c #9C723B",
"r  c #9C733D",
"t  c #935D4C",
"y  c #806541",
"u  c #8F6F4B",
"i  c #906D42",
"p  c #936D42",
"a  c #81704E",
"s  c #89724F",
"d  c #987240",
"f  c #997441",
"g  c #9A7244",
"h  c #997F4F",
"j  c #856D52",
"k  c #856058",
"l  c #846359",
"z  c #996755",
"x  c #827352",
"c  c #8B7053",
"v  c #897056",
"b  c #8A7256",
"n  c #8E7457",
"m  c #86725A",
"M  c #8C785F",
"N  c #927651",
"B  c #917654",
"V  c #977B53",
"C  c #93775B",
"Z  c #9F7A5D",
"A  c #9C795F",
"S  c #A17943",
"D  c #A17B45",
"F  c #AE715E",
"G  c #A07B5E",
"H  c #AA7D5C",
"J  c #B27C59",
"K  c #857560",
"L  c #887760",
"P  c #8F7F60",
"I  c #86766A",
"U  c #937066",
"Y  c #947A62",
"T  c #987C62",
"R  c #927E6B",
"E  c #AD7663",
"W  c #A07F6B",
"Q  c #B77760",
"!  c #B77865",
"~  c #B57E6D",
"^  c #B17F74",
"/  c #D27756",
"(  c #D97858",
")  c #DC7D5D",
"_  c #9C8152",
"`  c #998054",
"'  c #A1804C",
"]  c #A0814E",
"[  c #A9864F",
"{  c #A18554",
"}  c #A58856",
"|  c #A68957",
" . c #AC8952",
".. c #AF8956",
"X. c #AF805E",
"o. c #B08B55",
"O. c #B38B57",
"+. c #B9815C",
"@. c #B18B59",
"#. c #B38E5B",
"$. c #B6915B",
"%. c #B6925A",
"&. c #B3915C",
"*. c #B3925F",
"=. c #B3935F",
"-. c #B6935D",
";. c #B5975E",
":. c #B9935D",
">. c #B59A5F",
",. c #BD985F",
"<. c #9F8771",
"1. c #9B8876",
"2. c #9B817B",
"3. c #A98163",
"4. c #A2896D",
"5. c #B68260",
"6. c #B68261",
"7. c #B08466",
"8. c #B2896A",
"9. c #B49C66",
"0. c #BF9962",
"q. c #BE9A63",
"w. c #A38370",
"e. c #AA8872",
"r. c #AE8873",
"t. c #AE887F",
"y. c #B08C77",
"u. c #B58D74",
"i. c #B8847A",
"p. c #BB877B",
"a. c #B9937A",
"s. c #C68367",
"d. c #C38567",
"f. c #C38965",
"g. c #C08068",
"h. c #C08A6C",
"j. c #D18A6A",
"k. c #C7916F",
"l. c #C19F6B",
"z. c #E58160",
"x. c #E18365",
"c. c #E48564",
"v. c #E58565",
"b. c #EF8763",
"n. c #E08A6B",
"m. c #E48868",
"M. c #E4886A",
"N. c #EA8A6A",
"B. c #ED8A68",
"V. c #ED8F6F",
"C. c #EF906F",
"Z. c #F4916E",
"A. c #EB8E70",
"S. c #F39474",
"D. c #F89672",
"F. c #FB9775",
"G. c #FE9977",
"H. c #F49A7D",
"J. c #C3A06D",
"K. c #C5A36C",
"L. c #C8A773",
"P. c #CAA673",
"I. c #C9A774",
"U. c #CCA872",
"Y. c #CAA974",
"T. c #A38D81",
"R. c #BD8E82",
"E. c #B98F86",
"W. c #AB918B",
"Q. c #B19480",
"!. c #B49087",
"~. c #B3928B",
"^. c #BA9789",
"/. c #B8968F",
"(. c #B8A881",
"). c #B5A09A",
"_. c #C19989",
"`. c #C5988F",
"'. c #C59D94",
"]. c #CB9F92",
"[. c #C99E95",
"{. c #F39C80",
"}. c #D5B581",
"|. c #DBBA89",
" X c #C6A693",
".X c #D2A498",
"XX c #DCA898",
"oX c #EEA58D",
"OX c #EEA68F",
"+X c #F8A284",
"@X c #F0A68F",
"#X c #EFA790",
"$X c #EAA995",
"%X c #EEAC97",
"&X c #E2AB9A",
"*X c #F2A890",
"=X c #F3AA93",
"-X c #CEA7A2",
";X c #DAB1A5",
":X c #DDB2A5",
">X c #DDB2A6",
",X c #E3AFA0",
"<X c #E2B0A1",
"1X c #EDB8A9",
"2X c #EABFB5",
"3X c #F0C7BF",
"4X c #D8CAC1",
"5X c None",
/* pixels */
"5X5X5X5X5X,. .' ] [ %.5X5X5X5X5X",
"5X5X5XU.h 5 P ;.{ N B f :.5X5X5X",
"5X5XY.a 2 L (.9.>...Z G i -.5X5X",
"5X|.: 1 n h.s.Q g.j.d.X.3.p J.5X",
"5X_ o c 1.~ z.v.) ( F W +.7.d 5X",
"P.- 3 T $ ! G.{.<XXXU 9 k.a.4.$.",
"=.& j <.).=XF.H.$X%X:X# r.Q.8.D ",
"| < + @ 6 E c.m.B.b.&X8 T.u.5.r ",
"} = v e./.z / n.t O l W.4Xf.6.e ",
"*.* 4 w.3XoXZ.+XR.t.;X-X XJ H S ",
"I.; * R 2X*XD.C.A.S.OX`.A C u #.",
"5X` , K >X#XV.M.x.N.@X^.b m w 5X",
"5X}.> 7 _.1X,Xi.^ p.].Y M y l.5X",
"5X5XL.x I [..XE.!.'.2.0 s &.5X5X",
"5X5X5XK.V y.k   X ~.% . q.5X5X5X",
"5X5X5X5X5X0.O.q g @.o.5X5X5X5X5X"
};
