/* XPM */
static char *result[] = {
/* columns rows colors chars-per-pixel */
"32 32 229 2 ",
"   c #1F110E",
".  c #131313",
"X  c #3C1E1A",
"o  c #3E3837",
"O  c #3A2F2C",
"+  c #47322D",
"@  c #513B2F",
"#  c #443530",
"$  c #413B3A",
"%  c #583B35",
"&  c #4F2C26",
"*  c #7F571E",
"=  c #4F413E",
"-  c #5D4834",
";  c #68443B",
":  c #764F2D",
">  c #7A603B",
",  c #393D49",
"<  c #453B44",
"1  c #5A5645",
"2  c #5B5949",
"3  c #574B47",
"4  c #635E4C",
"5  c #685748",
"6  c #755745",
"7  c #675A55",
"8  c #775B54",
"9  c #6D644D",
"0  c #74694F",
"q  c #6C6653",
"w  c #6E6854",
"e  c #6D6958",
"r  c #646355",
"t  c #746750",
"y  c #756953",
"u  c #7B6C54",
"i  c #7D625C",
"p  c #736E5B",
"a  c #7A6E5A",
"s  c #7C725C",
"d  c #7A7054",
"f  c #766B65",
"g  c #766E69",
"h  c #875B1B",
"j  c #885E23",
"k  c #835E29",
"l  c #875F30",
"z  c #824834",
"x  c #8C6328",
"c  c #976B2A",
"v  c #9E702C",
"b  c #8E693D",
"n  c #88673A",
"m  c #946C3F",
"M  c #996D32",
"N  c #9E7538",
"B  c #A1722E",
"V  c #A17431",
"C  c #AC7E3B",
"Z  c #8F584E",
"A  c #A25E45",
"S  c #8A734B",
"D  c #957245",
"F  c #977A4A",
"G  c #826E54",
"H  c #876C56",
"J  c #956A55",
"K  c #8C7256",
"L  c #85745B",
"P  c #8B745A",
"I  c #8D7C5A",
"U  c #877356",
"Y  c #947454",
"T  c #957B53",
"R  c #93765A",
"E  c #937C5A",
"W  c #997A5B",
"Q  c #9A7657",
"!  c #906941",
"~  c #A47E5D",
"^  c #AB7E5D",
"/  c #A57E55",
"(  c #B37C59",
")  c #AD754B",
"_  c #926E65",
"`  c #887A65",
"'  c #957B61",
"]  c #9B7E63",
"[  c #977A6B",
"{  c #9B7B70",
"}  c #8C766D",
"|  c #A67869",
" . c #B07D6D",
".. c #C06C4E",
"X. c #C46F50",
"o. c #CD7355",
"O. c #C47659",
"+. c #D27555",
"@. c #D47A5B",
"#. c #DA7D5D",
"$. c #D47758",
"%. c #E17F5D",
"&. c #DA7F61",
"*. c #C37E64",
"=. c #AD803D",
"-. c #9A8157",
";. c #AD8241",
":. c #AF884B",
">. c #B38643",
",. c #B68C4B",
"<. c #B98E4C",
"1. c #B38847",
"2. c #BB944E",
"3. c #A8855A",
"4. c #B3815F",
"5. c #BB825E",
"6. c #B18E54",
"7. c #BC9353",
"8. c #BC965B",
"9. c #B39259",
"0. c #8F846A",
"q. c #958066",
"w. c #9C8577",
"e. c #8F8772",
"r. c #AD8364",
"t. c #AB836B",
"y. c #AD896D",
"u. c #A48566",
"i. c #B38363",
"p. c #BC8461",
"a. c #B68A6A",
"s. c #BA8A69",
"d. c #A0936F",
"f. c #BD9763",
"g. c #A78776",
"h. c #B88878",
"j. c #B69876",
"k. c #AA9F78",
"l. c #B2A27F",
"z. c #C29655",
"x. c #C59B5C",
"c. c #C99D5B",
"v. c #C18E54",
"b. c #C9A153",
"n. c #D5AC5F",
"m. c #C28864",
"M. c #DD8264",
"N. c #D68467",
"B. c #C59E63",
"V. c #C3977A",
"C. c #CA8D7B",
"Z. c #E18363",
"A. c #E5896C",
"S. c #EC8C6B",
"D. c #E58667",
"F. c #F38F6E",
"G. c #F1916F",
"H. c #EE9475",
"J. c #EB997D",
"K. c #F59574",
"L. c #F89776",
"P. c #F59977",
"I. c #F29778",
"U. c #F39A7C",
"Y. c #F99B7B",
"T. c #E38C70",
"R. c #C5A169",
"E. c #CCA56C",
"W. c #C9A263",
"Q. c #C5AC77",
"!. c #D1AE79",
"~. c #D2AC74",
"^. c #928C86",
"/. c #AC8C84",
"(. c #A58A81",
"). c #B38C83",
"_. c #BB8D86",
"`. c #A99588",
"'. c #BA9284",
"]. c #BA9686",
"[. c #AB9B96",
"{. c #B89B95",
"}. c #BFA191",
"|. c #A9A29A",
" X c #BAB2AE",
".X c #AEA9A4",
"XX c #C2948B",
"oX c #C4998E",
"OX c #C89489",
"+X c #C59B91",
"@X c #CD9C91",
"#X c #D79984",
"$X c #F09D81",
"%X c #CDA287",
"&X c #CBA194",
"*X c #CCA59A",
"=X c #CBA99E",
"-X c #C3A498",
";X c #DBA99C",
":X c #D3A69A",
">X c #C6B09E",
",X c #D4B690",
"<X c #EDA188",
"1X c #F3A58B",
"2X c #FCAB8F",
"3X c #E7AC9B",
"4X c #E6B09F",
"5X c #F2AD96",
"6X c #CDACA0",
"7X c #C4A7A0",
"8X c #DCB4AA",
"9X c #DBB6AB",
"0X c #D4B7AD",
"qX c #EAB4A4",
"wX c #E5B6A9",
"eX c #E9B7A9",
"rX c #EBBAAC",
"tX c #E2B6A8",
"yX c #E9BCB1",
"uX c #CBC09E",
"iX c #D6C2BD",
"pX c #EAC3BA",
"aX c #E9C3B7",
"sX c #F4C6BB",
"dX c #C7C2C2",
"fX c #F0D4CE",
"gX c #E6E6E7",
"hX c linen",
"jX c None",
/* pixels */
"jXjXjXjXjXjXjXjXjXjXjXjXB.7.1.>.=.1.2.8.jXjXjXjXjXjXjXjXjXjXjXjX",
"jXjXjXjXjXjXjXjXjXR.2.,.) F F F S -.F N N =.x.jXjXjXjXjXjXjXjXjX",
"jXjXjXjXjXjXjXjX2.:.T u p s 6.0.e.d.-.0.L D c C R.jXjXjXjXjXjXjX",
"jXjXjXjXjXjXW.<.T q e p ` k.n.b.c.M b E ] ' E b c <.jXjXjXjXjXjX",
"jXjXjXjXjXz.9.u q p L ` l.Q.R.9.2.2.=.3.^ ~ ~ ] Y j >.jXjXjXjXjX",
"jXjXjXjXx.6.y e s G L R uXk.Q.` d.!.z.3.Q Q ^ ~ q.W j =.jXjXjXjX",
"jXjXjXE.6.q q u H K Q p.%XP  .h.| ].V.s.p.| ( ~ ^ u.E j 7.jXjXjX",
"jXjXjXz.u 4 u U Y Y t.H.&.$.o.o.+.@.M.M.I.( ( i.4.^ t.Q h !.jXjX",
"jXjXc.-.1 y G Y J `.iXN.o.$.$.$.$.o.o.o.N./.].( 4.4.4.y.m v jXjX",
"jX!.7.4 5 u K K u..X5 X.S.F.K.H.S.Z.$.+.+.; } | 5.5.i.s.u.j R.jX",
"jXb.-.1 u G P W `.O @ G.L.I.K.$X3X3X#X#Xs.% 7 [.5.5.p.y..XD V jX",
"jXc.9 4 u H K d.3 % @XY.L.I.F.<X9X8X6X8X9X8 $  X%X5.p.|.>X~ x jX",
"R.f.1 0 G U K ].[.(.tXL.L.I.K.<XtX8XtXtXfX*X+ 7 =Xm.t. Xs.y.x 8.",
"W.3.1 y G R Q >XdX+XeXI.$XL.K.I.U.U.U.I.5XfX8 O `.m.^.j.5.a.n ;.",
"x.-.2 u G 5 - 4 7 w.+XH.F.K.L.L.L.K.G.F.1XfX{ o t.q.^.m.5.a.b N ",
"x.I 2 s 5 - 6 8 H . 3 O.o.o.@.&.Z.Z.#.#.U.dX/.5 }.7X].5.5.s.D v ",
"c.I 1 a P W Q g.sX_ $ N.@.) X.D.) A *.O.z O /.i dXhXm.5.5.p.! v ",
"x.E 1 u U P R {.8XrXH O.&.o.S.2X|   o < # 7X;Xw.gXfX( 5.5.s.m V ",
"x.3.1 y a U P C.yXfXqXL.F.K.L.1X;X_ | /.6XyX:X{.gXV.( 4.i.i.l ;.",
"E.9.2 q y u u '.fXyXqXI.I.L.K.1XrXOXOXyXwXtX*X_.+X| (  .^ u.j 8.",
"jXx.q r t y t g.yXrXrX$XK.K.S.A.T.&.S.$X$X4X+XOXt.Q R W | Q h jX",
"jXW.E 1 q w t w.yXrXqXL.K.K.K.S.S.S.%.K.L.3X_.+XW R P P E ! V jX",
"jX~.8.r q a a } yXeXqXL.K.K.K.K.K.F.F.F.L.3X:X).K P P P L * B.jX",
"jXjXz.T r s s H +XrXqXI.S.A.T.&.&.&.&.$XL.4X9X[ K P P L > B jXjX",
"jXjX!.8.y e s u '.eXwX;X3X@X .Z | | Z :X:X:X[ P R P P G h !.jXjX",
"jXjXjXW.9.e p L [ :XrXwXwXrX+X .XX_.| XXoX].P I ' ' ` * ,.jXjXjX",
"jXjXjXjXx.6.p s ` { ;XrXeXrX;XXX:X7X6X*XXX{ L L ` ` k C jXjXjXjX",
"jXjXjXjXjX7.3.s e e.).h.XXoXXX{ _ XX+X).{.e f w.0.n C jXjXjXjXjX",
"jXjXjXjXjXjXc.,.T f { {.8 % % & % Z } {.].< , S c 1.jXjXjXjXjXjX",
"jXjXjXjXjXjXjXR.z.F | 4XXX3 X & & i {.7X6 - n B E.jXjXjXjXjXjXjX",
"jXjXjXjXjXjXjXjXjXB.<.1.v./ : : : Q h.! M =.8.jXjXjXjXjXjXjXjXjX",
"jXjXjXjXjXjXjXjXjXjXjXjX8.,.,.1.1.=.,.f.jXjXjXjXjXjXjXjXjXjXjXjX"
};
