/* XPM */
static char *result[] = {
/* columns rows colors chars-per-pixel */
"16 16 138 2 ",
"   c #3F1C15",
".  c #724538",
"X  c #7A4C3D",
"o  c #635A45",
"O  c #675E48",
"+  c #655F4C",
"@  c #6D5F48",
"#  c #605855",
"$  c #6A5F5D",
"%  c #7F5B52",
"&  c #66604E",
"*  c #746147",
"=  c #756048",
"-  c #6B6653",
";  c #6F6650",
":  c #6C6652",
">  c #6F615E",
",  c #756152",
"<  c #716750",
"1  c #7D6B52",
"2  c #7E705B",
"3  c #766B63",
"4  c #7C6C63",
"5  c #7D7064",
"6  c #7B7766",
"7  c #7B7969",
"8  c #8D5E51",
"9  c #846C52",
"0  c #846F55",
"q  c #90695E",
"w  c #887053",
"e  c #8C7156",
"r  c #8D7157",
"t  c #81725B",
"y  c #987353",
"u  c #9C7857",
"i  c #9B7A5F",
"p  c #A26855",
"a  c #AC6C55",
"s  c #BB6C51",
"d  c #A37855",
"f  c #847563",
"g  c #817B65",
"h  c #887F67",
"j  c #86756E",
"k  c #807D69",
"l  c #8D7A68",
"z  c #947B66",
"x  c #977F66",
"c  c #9B776B",
"v  c #9D7468",
"b  c #927C6B",
"n  c #9D7D68",
"m  c #897670",
"M  c #9E7C73",
"N  c #A57A63",
"B  c #C2775F",
"V  c #D17656",
"C  c #D3795A",
"Z  c #BC815B",
"A  c #8D826A",
"S  c #88877F",
"D  c #8E8D7C",
"F  c #9F8671",
"G  c #9E867A",
"H  c #9F857D",
"J  c #9E947E",
"K  c #AE8361",
"L  c #AD8767",
"P  c #A0806A",
"I  c #A2806C",
"U  c #A8836D",
"Y  c #B28764",
"T  c #B28E6F",
"R  c #BF8A68",
"E  c #A68174",
"W  c #AF8674",
"Q  c #AD8972",
"!  c #A3877E",
"~  c #B68D7E",
"^  c #B9887E",
"/  c #A4967E",
"(  c #A99278",
")  c #B7947B",
"_  c #B8967E",
"`  c #D0846E",
"'  c #D4896F",
"]  c #D88770",
"[  c #E08364",
"{  c #E78465",
"}  c #E98563",
"|  c #EB8B6A",
" . c #EF8B6C",
".. c #F18966",
"X. c #F6916F",
"o. c #EA997F",
"O. c #EC997C",
"+. c #F99370",
"@. c #F99472",
"#. c #FD9571",
"$. c #FE9977",
"%. c #F19D7F",
"&. c #8D8B84",
"*. c #968784",
"=. c #918F80",
"-. c #978A88",
";. c #A38A82",
":. c #AC9189",
">. c #A2988C",
",. c #A09B92",
"<. c #BF9D92",
"1. c #B0A38D",
"2. c #B3A38C",
"3. c #B0A39C",
"4. c #C89785",
"5. c #C59C8C",
"6. c #D09789",
"7. c #E59B82",
"8. c #F49F81",
"9. c #D2A58F",
"0. c #C7A393",
"q. c #C3A398",
"w. c #F6A185",
"e. c #F8A385",
"r. c #F1A78F",
"t. c #E5A596",
"y. c #E6AD97",
"u. c #E6AE9B",
"i. c #ECAF9B",
"p. c #E9B09E",
"a. c #D3A8A1",
"s. c #CCB2AF",
"d. c #D5B2A9",
"f. c #E2BAAE",
"g. c #E8BAAB",
"h. c #E8BAAC",
"j. c #F3C8BF",
"k. c None",
/* pixels */
"k.k.k.k.k.k.k.k.k.k.k.k.k.k.k.k.",
"k.k.k.k.k.k.k.k.k.k.k.k.k.k.k.k.",
"k.k.k.k.k.k.k g h A J k.k.k.k.k.",
"k.k.k.k.D ; t f 5 b i u / k.k.k.",
"k.k.k.=.@ x W X . 8 E P d 2.k.k.",
"k.k.k.o e 4 B #.+...s $ U K k.k.",
"k.k.6 * F ;.%.$.r.u.f.> G ) 1.k.",
"k.k.: = , m ' | o.7.h.*.j _ T k.",
"k.k.+ 9 n H a C [ V p -.3.R Y k.",
"k.k.- 1 I j.w.X.t.^ d.s.0.Z L k.",
"k.k.7 O l g.e.@.] ` p.a.N y ( k.",
"k.k.k.& 2 9.8. .{ } O.<.r 0 k.k.",
"k.k.k.&.< Q y.i.6.4.5.z w >.k.k.",
"k.k.k.k.S 3 ~ v % ! :.# ,.k.k.k.",
"k.k.k.k.k.k.q.q   c M k.k.k.k.k.",
"k.k.k.k.k.k.k.k.k.k.k.k.k.k.k.k."
};
