/* XPM */
static char *result[] = {
/* columns rows colors chars-per-pixel */
"32 32 232 2 ",
"   c #190E0D",
".  c #190F0E",
"X  c #341B17",
"o  c #3E201D",
"O  c #1D2426",
"+  c #342725",
"@  c #3D3228",
"#  c #43251F",
"$  c #4C2B25",
"%  c #46352D",
"&  c #433733",
"*  c #593428",
"=  c #653A2D",
"-  c #633F24",
";  c #683E31",
":  c #623F39",
">  c #564238",
",  c #4B403D",
"<  c #6D4133",
"1  c #69453A",
"2  c #714D31",
"3  c #734F27",
"4  c #7A603B",
"5  c #3E3F4E",
"6  c #49464A",
"7  c #524543",
"8  c #5B4C49",
"9  c #5B5846",
"0  c #5C5A49",
"q  c #5A5645",
"w  c #585150",
"e  c #634E48",
"r  c #645E4C",
"t  c #63574A",
"y  c #7D564B",
"u  c #685651",
"i  c #775C54",
"p  c #69634E",
"a  c #72634C",
"s  c #786C4F",
"d  c #6C6652",
"f  c #6E6854",
"g  c #6D6958",
"h  c #656355",
"j  c #756953",
"k  c #7C6D54",
"l  c #736D5C",
"z  c #7A6E5A",
"x  c #756750",
"c  c #79705B",
"v  c #7A7054",
"b  c #787366",
"n  c #7E7270",
"m  c #84591B",
"M  c #885C1D",
"N  c #895E23",
"B  c #855E27",
"V  c #9E583F",
"C  c #8D6020",
"Z  c #976A29",
"A  c #8B693B",
"S  c #886331",
"D  c #986E38",
"F  c #9E7435",
"G  c #9F712D",
"H  c #A17431",
"J  c #AB7E3B",
"K  c #A87936",
"L  c #A0712D",
"P  c #835E54",
"I  c #81594E",
"U  c #886A47",
"Y  c #926A41",
"T  c #8C744A",
"R  c #937145",
"E  c #987949",
"W  c #846E54",
"Q  c #816959",
"!  c #966558",
"~  c #8C7256",
"^  c #84745C",
"/  c #8B745A",
"(  c #8D7B57",
")  c #9B7553",
"_  c #947B54",
"`  c #93765B",
"'  c #937C5B",
"]  c #997A5B",
"[  c #957352",
"{  c #A57E5C",
"}  c #AB7A5A",
"|  c #B27F5B",
" . c #B47658",
".. c #B07449",
"X. c #8C7C63",
"o. c #85726E",
"O. c #887A67",
"+. c #937B63",
"@. c #9A7F68",
"#. c #897A78",
"$. c #937D76",
"%. c #8F6C62",
"&. c #A87868",
"*. c #B2786C",
"=. c #A87E73",
"-. c #B47E74",
";. c #C36D4E",
":. c #C46F50",
">. c #CE7656",
",. c #C87558",
"<. c #D27A5C",
"1. c #D97B5C",
"2. c #D37756",
"3. c #CD7C63",
"4. c #DA7F62",
"5. c #AE823F",
"6. c #99845A",
"7. c #AD8241",
"8. c #B38642",
"9. c #B48846",
"0. c #B48A4B",
"q. c #B98E4C",
"w. c #A8885A",
"e. c #B4815F",
"r. c #BB835F",
"t. c #B58F54",
"y. c #BB9355",
"u. c #BB955A",
"i. c #B7935A",
"p. c #BD914C",
"a. c #8A816B",
"s. c #91846D",
"d. c #9E826C",
"f. c #978979",
"g. c #8E8670",
"h. c #AD896D",
"j. c #A98366",
"k. c #B38463",
"l. c #BA8561",
"z. c #B6896A",
"x. c #B88B68",
"c. c #A88676",
"v. c #B7877B",
"b. c #B6917B",
"n. c #BA9860",
"m. c #DD805F",
"M. c #C09554",
"N. c #C49956",
"B. c #C49A5B",
"V. c #C99D5B",
"C. c #C28863",
"Z. c #DE8265",
"A. c #D68265",
"S. c #C39D63",
"D. c #C09662",
"F. c #C4897E",
"G. c #C29A78",
"H. c #E48465",
"J. c #E38A6C",
"K. c #ED8B6B",
"L. c #E18568",
"P. c #F2906F",
"I. c #E78D70",
"U. c #ED9173",
"Y. c #ED967A",
"T. c #F59474",
"R. c #FA9675",
"E. c #F6997A",
"W. c #F99A7A",
"Q. c #F79877",
"!. c #F18F6E",
"~. c #CAA469",
"^. c #CEA971",
"/. c #D0AD7A",
"(. c #D3B27D",
"). c #9C8C84",
"_. c #928785",
"`. c #9E9288",
"'. c #8C8883",
"]. c #A48882",
"[. c #BA8C81",
"{. c #AD9585",
"}. c #BD9284",
"|. c #B6958D",
" X c #BE968B",
".X c #B39782",
"XX c #AA9C97",
"oX c #BA9B92",
"OX c #ACA29A",
"+X c #B8A39A",
"@X c #AAA4A1",
"#X c #BAB2AA",
"$X c #B9A9A6",
"%X c #C3968B",
"&X c #C59789",
"*X c #C29E94",
"=X c #F09C80",
"-X c #CDA99E",
";X c #C9A598",
":X c #DBAB9E",
">X c #D4A79B",
",X c #D5AA93",
"<X c #EEA188",
"1X c #F2A48B",
"2X c #F4A084",
"3X c #E7A996",
"4X c #E6AE9C",
"5X c #E9AD9A",
"6X c #D7ACA2",
"7X c #DBADA2",
"8X c #D2B1A9",
"9X c #DDB6AB",
"0X c #D9B5A9",
"qX c #C6B4B1",
"wX c #E4B4A6",
"eX c #E9B4A4",
"rX c #E3B6A9",
"tX c #E5BAAE",
"yX c #EAB9AB",
"uX c #E8B2A9",
"iX c #F1BBAB",
"pX c #E5BDB2",
"aX c #CBC2BC",
"sX c #ECC1B5",
"dX c #E7C4BC",
"fX c #F3C1B2",
"gX c #DAC8C2",
"hX c #EFCEC7",
"jX c #EADBD7",
"kX c #EAD0C9",
"lX c #F2E3DC",
"zX c None",
/* pixels */
"zXzXzXzXzXzXzXzXzXzXzXzXu.p.0.9.5.5.p.u.zXzXzXzXzXzXzXzXzXzXzXzX",
"zXzXzXzXzXzXzXzXzXu.p.0.7.E T T T 6.T F G 5.y.zXzXzXzXzXzXzXzXzX",
"zXzXzXzXzXzXzXzXp.0.T k l b O.a.g.g.g.a./ T Z K ~.zXzXzXzXzXzXzX",
"zXzXzXzXzXzX~.q._ f l b a.g.f.`.f.f.+.' ] +.] A C y.zXzXzXzXzXzX",
"zXzXzXzXzXy.t.v h c W g.#.8 8 8 8 o.OX)..X&.{ @.[ N 7.zXzXzXzXzX",
"zXzXzXzXB.t.j g k ^ OX_.+       . + 7 7 OX+X) { d.+.C 7.zXzXzXzX",
"zXzXzX~.t.f g j ^ aXOX; = < < < ; = = ; y $.XXh.{ w.] C y.zXzXzX",
"zXzXzXN.s r k W #X_.$ <.P.T.Q.T.T.H.1.1.2.* w f.{ } j.) m (.zXzX",
"zXzXV.6.q a W {.n . y W.Q.Q.Q.Q.T.T.I.K.K.: @ #.c.e.e.h.A Z zXzX",
"zX(.y.r p s ` o.X Q rXW.T.T.T.T.T.T.P.P.R.*.5 #.gXl.r.x.j.C ~.zX",
"zXV.6.q s k d.).i ;XrXE.Q.T.T.=X3X3X4X3X5XyXi @ XX&Xr.h.OXR G zX",
"zXB.a r v ^ c.jX+X:XyX2XQ.T.T.<X9XtX9XtXpXjX].$ t ;Xr.OX-Xd.C zX",
"S.u.9 x W a $.$Xv.pXiX2XR.W.T.<X9X9XrX9XpXjX8X7 7 G.h.#Xn.h.S y.",
"B.w.0 r % % & & & t z A.4.L.U.U.=XY.J.L.1XlXhXe 8 b.).b.l.h.A J ",
"B.6.0 a a _ ` >Xi O w ,.:.:.:.2.>.>.>.2.:.o.XXQ $.`.f.l.l.z.A H ",
"B.( 0 c ~ ~ @.0XiX7 7 A.2.;.<.P.1.,.A.L.Y   $.c.$.XX&Xr.r.z.R L ",
"V.( 0 k ~ ~ v.8XuX7Xy 4.1.4.R.=XJ.;.,.3. .|.pXoX@XlXC.r.r.x.A G ",
"B.' q k / / &.7XhXyXuXW.P.R.R.1XwX&.-.*X7XtXuX|.aX0X .r.r.x.D H ",
"B.w.0 j Q W c.hXhXuXuXW.R.T.R.1XiX%X%XwX9X9X7X|.[.*.| e.e.j.S ..",
"n.i.0 d j j +.pXpXuXiX=XT.T.!.3.=.*.*.:XtXuX7X%X[.} | *.k.j.C y.",
"zX~.a p f x ^ tXuXyXeXE.T.T.T.4.3.4.4.Y.2X4X7X%X&X` ] ] &._ M zX",
"zXB.6.9 d f z 9XyXuXeXQ.R.R.T.T.R.P.K.K.T.5X7X%Xc.~ ~ ~ ( A H zX",
"zX^.i.0 f z j {.yXwXeXT.K.K.K.4.4.R.!.!.T.4XpX>X` ~ ~ ^ ^ B u.zX",
"zXzXu.6.h c k d.yXwXeXU.U.U.4.4.4.4.1.!.T.4X*X$.~ / / ^ 4 L zXzX",
"zXzX(.y.j g c X.>XeXeXeXeX:X-.! [.[.! %X%X6X@.~ ` ` ( W M /.zXzX",
"zXzXzX~.i.g c c c.:XrXuXyXyX>X X8X}.%X*X}.%X+./ ' X.( 3 q.zXzXzX",
"zXzXzXzXN.w.l b b v.:X:XwXuX>X}.%X-X-X-X%X).l X.s.X.4 5.zXzXzXzX",
"zXzXzXzXzXN.w.v n ].v.c.@.=.&.I I =.[.v.*Xo.6 g s.S K zXzXzXzXzX",
"zXzXzXzXzXzXB.0.+.e >Xb.1 $ $ # $ I %.*X8X> 5 > Z 9.zXzXzXzXzXzX",
"zXzXzXzXzXzXzX^.M.E G.:Xb.: o $ $ P ;X-X! - S K ^.zXzXzXzXzXzXzX",
"zXzXzXzXzXzXzXzXzXS.0.0.u.) 2 < 2 [ h.R F J B.zXzXzXzXzXzXzXzXzX",
"zXzXzXzXzXzXzXzXzXzXzXzXq.q.q.8.8.8.9.y.zXzXzXzXzXzXzXzXzXzXzXzX"
};
